<svg xmlns="http://www.w3.org/2000/svg" width="191" height="103" viewBox="0 0 191 103" fill="none">
    <g clip-path="url(#clip0_852_160)">
        <path d="M118.072 24.0546C117.59 23.8364 116.881 23.6727 116.145 23.6727C114.209 23.6727 113.381 24.5364 113.381 27.1727C113.381 30 114.218 30.8818 116.181 30.8818C116.927 30.8818 117.572 30.7091 118.109 30.4364L118.272 31.4909C117.7 31.7818 116.836 32.0273 116.027 32.0273C113.3 32.0273 112.063 30.5182 112.063 27.1636C112.063 24 113.318 22.4818 116.09 22.4818C116.854 22.4818 117.736 22.6818 118.236 22.9091L118.072 24.0364V24.0546Z" fill="#3F526F"/>
        <path d="M124.473 31.8636V27.0182C124.473 26.0364 123.946 25.5 122.819 25.5C122.055 25.5 121.391 25.8636 121.1 26.3364V31.8727H119.946V22.1818L121.1 22.1091V25.2182L121.109 25.2273C121.637 24.6727 122.382 24.4182 123.155 24.4182C124.755 24.4182 125.628 25.3546 125.628 27.0182V31.8636H124.473Z" fill="#3F526F"/>
        <path d="M131.59 28.5273C131.409 28.4182 130.863 28.2545 130.127 28.2545C128.909 28.2545 128.381 28.7454 128.381 29.6182C128.381 30.6636 129.009 31.0182 129.854 31.0182C130.763 31.0182 131.581 30.4 131.581 29.7909V28.5273H131.59ZM131.745 30.9727H131.709C131.281 31.5909 130.481 31.9818 129.536 31.9818C128.2 31.9818 127.29 31.2818 127.29 29.6363C127.29 28.2636 128.172 27.4091 129.918 27.4091C130.545 27.4091 131.145 27.5363 131.6 27.6909V26.9636C131.6 25.8091 131.081 25.4 129.89 25.4C129.118 25.4 128.49 25.5364 127.836 25.8454L127.727 24.8727C128.427 24.5545 129.209 24.3909 130.081 24.3909C132.009 24.3909 132.736 25.2 132.736 27.1273V31.8545H131.854L131.745 30.9545V30.9727Z" fill="#3F526F"/>
        <path d="M134.755 31.8636V24.5909L135.691 24.5273L135.791 26.1H135.819C136.273 25.0454 137.073 24.4273 138.064 24.4273C138.337 24.4273 138.591 24.4636 138.791 24.5273L138.719 25.7091C138.5 25.6364 138.255 25.6091 137.991 25.6091C136.846 25.6091 135.928 26.5818 135.928 28.1545V31.8636H134.764H134.755Z" fill="#3F526F"/>
        <path d="M141.882 25.4546V29.9455C141.882 30.7091 142.291 31.0182 142.954 31.0182C143.163 31.0182 143.418 30.9818 143.572 30.9182L143.645 31.8C143.427 31.9091 143.018 31.9818 142.627 31.9818C141.372 31.9818 140.727 31.2818 140.727 29.9818V25.4546H139.709V24.5455H140.763L140.982 22.7273L141.891 22.6273V24.5455H143.691V25.4546H141.891H141.882Z" fill="#3F526F"/>
        <path d="M149.509 27.5727C149.482 26.0273 148.764 25.4364 147.709 25.4364C146.473 25.4364 145.918 26.1273 145.845 27.5727H149.518H149.509ZM144.673 28.0182C144.673 25.7182 145.682 24.4364 147.691 24.4364C149.436 24.4364 150.573 25.4636 150.573 27.8091C150.573 27.9909 150.564 28.2182 150.545 28.3727H145.854C145.918 30.3 146.627 30.9636 148.2 30.9636C148.936 30.9636 149.564 30.8091 150.191 30.5L150.327 31.4818C149.709 31.8182 148.954 32.0182 148.064 32.0182C145.654 32.0182 144.664 30.7545 144.664 28.0182" fill="#3F526F"/>
        <path d="M152.264 31.8636V24.5909L153.2 24.5273L153.3 26.1H153.327C153.782 25.0454 154.582 24.4273 155.573 24.4273C155.846 24.4273 156.1 24.4636 156.3 24.5273L156.227 25.7091C156.009 25.6364 155.764 25.6091 155.5 25.6091C154.355 25.6091 153.437 26.5818 153.437 28.1545V31.8636H152.273H152.264Z" fill="#3F526F"/>
        <path d="M162.045 27.5727C162.018 26.0273 161.3 25.4364 160.245 25.4364C159.009 25.4364 158.454 26.1273 158.382 27.5727H162.054H162.045ZM157.209 28.0182C157.209 25.7182 158.218 24.4364 160.227 24.4364C161.973 24.4364 163.109 25.4636 163.109 27.8091C163.109 27.9909 163.1 28.2182 163.082 28.3727H158.391C158.454 30.3 159.164 30.9636 160.736 30.9636C161.473 30.9636 162.1 30.8091 162.727 30.5L162.864 31.4818C162.254 31.8182 161.491 32.0182 160.6 32.0182C158.191 32.0182 157.2 30.7545 157.2 28.0182" fill="#3F526F"/>
        <path d="M169.282 26.3273C168.973 25.8273 168.327 25.4909 167.536 25.4909C166.109 25.4909 165.6 26.2545 165.6 28.2455C165.6 30.2364 166.063 31.0455 167.527 31.0455C168.545 31.0455 169.073 30.5455 169.282 30.1455V26.3273ZM169.554 31.8636L169.409 31.1H169.373C168.918 31.6909 168.191 32.0091 167.209 32.0091C165.236 32.0091 164.4 30.8091 164.4 28.1909C164.4 25.7091 165.273 24.4091 167.227 24.4091C168.036 24.4091 168.773 24.6909 169.291 25.2273H169.318L169.291 24.2364V22.1727L170.454 22.1V31.8636H169.554Z" fill="#3F526F"/>
        <path d="M113.954 38.2H112.663V47.4091H113.954V38.2Z" fill="#3F526F"/>
        <path d="M120.927 47.4091V42.5727C120.927 41.4909 120.355 41.0364 119.273 41.0364C118.645 41.0364 117.909 41.3273 117.564 41.8545V47.4H116.4V40.1091L117.236 40.0455L117.436 40.8182H117.473C117.973 40.2636 118.773 39.9454 119.6 39.9454C121.145 39.9454 122.091 40.8182 122.091 42.5636V47.4H120.936L120.927 47.4091Z" fill="#3F526F"/>
        <path d="M126 47.5636C125.127 47.5636 124.318 47.3545 123.754 46.9454L123.9 45.9363C124.454 46.3545 125.291 46.5727 125.991 46.5727C127.064 46.5727 127.5 46.0545 127.5 45.3727C127.5 43.7182 123.754 44.4909 123.754 42.0182C123.754 40.7818 124.627 39.9636 126.309 39.9636C127.018 39.9636 127.7 40.1091 128.282 40.3818L128.182 41.3636C127.564 41.1091 126.864 40.9727 126.282 40.9727C125.409 40.9727 124.854 41.3545 124.854 41.9545C124.854 43.5182 128.573 42.7 128.573 45.2545C128.573 46.6273 127.8 47.5454 125.991 47.5454" fill="#3F526F"/>
        <path d="M131.637 41V45.4909C131.637 46.2545 132.046 46.5636 132.709 46.5636C132.918 46.5636 133.173 46.5273 133.327 46.4636L133.4 47.3454C133.182 47.4545 132.773 47.5273 132.382 47.5273C131.127 47.5273 130.482 46.8273 130.482 45.5273V41H129.464V40.0909H130.518L130.736 38.2727L131.646 38.1727V40.0909H133.446V41H131.646H131.637Z" fill="#3F526F"/>
        <path d="M135.273 47.4091V40.1273L136.436 40.0636V47.4091H135.273ZM135.864 38.8636C135.364 38.8636 135.118 38.7091 135.118 38.2364C135.118 37.8273 135.364 37.6091 135.864 37.6091C136.364 37.6091 136.609 37.8273 136.609 38.2364C136.609 38.6636 136.364 38.8636 135.864 38.8636Z" fill="#3F526F"/>
        <path d="M140.445 41V45.4909C140.445 46.2545 140.854 46.5636 141.518 46.5636C141.727 46.5636 141.981 46.5273 142.136 46.4636L142.209 47.3454C141.991 47.4545 141.581 47.5273 141.191 47.5273C139.936 47.5273 139.291 46.8273 139.291 45.5273V41H138.272V40.0909H139.327L139.545 38.2727L140.454 38.1727V40.0909H142.254V41H140.454H140.445Z" fill="#3F526F"/>
        <path d="M149.327 45.0091C149.327 46.6273 148.409 47.5545 146.482 47.5545C144.554 47.5545 143.645 46.6182 143.645 45.0091V40.1H144.8V44.9909C144.8 45.9727 145.363 46.4909 146.491 46.4909C147.618 46.4909 148.173 45.9909 148.173 44.9909V40.1H149.327V45.0091Z" fill="#3F526F"/>
        <path d="M152.782 41V45.4909C152.782 46.2545 153.191 46.5636 153.854 46.5636C154.064 46.5636 154.318 46.5273 154.473 46.4636L154.545 47.3454C154.327 47.4545 153.918 47.5273 153.527 47.5273C152.273 47.5273 151.627 46.8273 151.627 45.5273V41H150.609V40.0909H151.664L151.882 38.2727L152.791 38.1727V40.0909H154.591V41H152.791H152.782Z" fill="#3F526F"/>
        <path d="M160.409 43.1182C160.382 41.5727 159.664 40.9818 158.609 40.9818C157.373 40.9818 156.818 41.6727 156.746 43.1182H160.418H160.409ZM155.573 43.5636C155.573 41.2636 156.582 39.9818 158.591 39.9818C160.336 39.9818 161.473 41.0091 161.473 43.3546C161.473 43.5364 161.464 43.7636 161.446 43.9182H156.755C156.818 45.8455 157.527 46.5091 159.1 46.5091C159.836 46.5091 160.464 46.3546 161.091 46.0455L161.227 47.0273C160.609 47.3636 159.855 47.5636 158.964 47.5636C156.555 47.5636 155.564 46.3 155.564 43.5636" fill="#3F526F"/>
        <path d="M169.709 46.5909C171.118 46.5909 171.664 45.8636 171.664 43.7818C171.664 41.7 171.127 40.9727 169.709 40.9727C168.291 40.9727 167.718 41.6818 167.718 43.7818C167.718 45.8818 168.273 46.5909 169.709 46.5909ZM169.709 47.5727C167.5 47.5727 166.518 46.4909 166.518 43.7818C166.518 41.0727 167.509 39.9727 169.709 39.9727C171.909 39.9727 172.854 41.0636 172.854 43.7818C172.854 46.5 171.909 47.5727 169.709 47.5727Z" fill="#3F526F"/>
        <path d="M174.918 47.4091V40.9909H173.836V40.0909H174.918V39.7636C174.918 38.5364 175.627 37.6364 177.309 37.6364C177.691 37.6364 178.118 37.7 178.391 37.7818L178.318 38.5818C178.082 38.5182 177.8 38.4818 177.518 38.4818C176.5 38.4818 176.082 38.9636 176.082 39.7727V40.0909H177.963V40.9909H176.082V47.4091H174.918Z" fill="#3F526F"/>
        <path d="M118.418 61.8182L118.381 62.9545H112.518V53.7455H118.172L118.209 54.9H113.763V57.6455H117.572V58.7H113.763V61.8182H118.418Z" fill="#3F526F"/>
        <path d="M124.5 57.4182C124.191 56.9182 123.546 56.5818 122.755 56.5818C121.327 56.5818 120.818 57.3455 120.818 59.3364C120.818 61.3273 121.282 62.1364 122.746 62.1364C123.764 62.1364 124.291 61.6364 124.5 61.2364V57.4182ZM124.773 62.9546L124.627 62.1909H124.591C124.136 62.7818 123.409 63.1 122.427 63.1C120.455 63.1 119.618 61.9 119.618 59.2818C119.618 56.8 120.491 55.5 122.446 55.5C123.255 55.5 123.991 55.7818 124.509 56.3182H124.536L124.509 55.3273V53.2636L125.673 53.1909V62.9546H124.773Z" fill="#3F526F"/>
        <path d="M128.109 62.9545V55.6727L129.273 55.6091V62.9545H128.109ZM128.7 54.4091C128.2 54.4091 127.955 54.2545 127.955 53.7818C127.955 53.3727 128.2 53.1545 128.7 53.1545C129.2 53.1545 129.445 53.3727 129.445 53.7818C129.445 54.2091 129.2 54.4091 128.7 54.4091Z" fill="#3F526F"/>
        <path d="M133.291 56.5455V61.0364C133.291 61.8 133.7 62.1091 134.364 62.1091C134.573 62.1091 134.828 62.0727 134.982 62.0091L135.055 62.8909C134.837 63 134.428 63.0727 134.037 63.0727C132.782 63.0727 132.137 62.3727 132.137 61.0727V56.5455H131.119V55.6364H132.173L132.391 53.8182L133.3 53.7182V55.6364H135.1V56.5455H133.3H133.291Z" fill="#3F526F"/>
        <path d="M136.927 62.9545V55.6727L138.091 55.6091V62.9545H136.927ZM137.518 54.4091C137.018 54.4091 136.773 54.2545 136.773 53.7818C136.773 53.3727 137.018 53.1545 137.518 53.1545C138.018 53.1545 138.264 53.3727 138.264 53.7818C138.264 54.2091 138.018 54.4091 137.518 54.4091Z" fill="#3F526F"/>
        <path d="M145.063 62.9545V58.1182C145.063 57.0364 144.491 56.5818 143.409 56.5818C142.782 56.5818 142.045 56.8727 141.7 57.4V62.9455H140.536V55.6546L141.373 55.5909L141.573 56.3636H141.609C142.109 55.8091 142.909 55.4909 143.736 55.4909C145.282 55.4909 146.227 56.3636 146.227 58.1091V62.9455H145.073L145.063 62.9545Z" fill="#3F526F"/>
        <path d="M149.237 57.7273C149.237 58.7636 149.837 59 150.664 59C151.791 59 152.137 58.5818 152.137 57.7273C152.137 56.7727 151.709 56.4364 150.691 56.4364C149.618 56.4364 149.246 56.8545 149.246 57.7273M149.555 61.8C149.146 62.0818 148.955 62.4727 148.955 62.8182C148.955 63.5545 149.473 63.9727 150.737 63.9727C152.391 63.9727 152.809 63.5182 152.809 62.8545C152.809 62.3364 152.537 62.0727 151.337 61.9545L149.555 61.8ZM149.664 59.7455C149.309 59.8454 149.109 60.0364 149.109 60.2818C149.109 60.5273 149.309 60.7364 149.746 60.7727L151.527 60.9182C153.291 61.0636 153.873 61.6545 153.873 62.6818C153.873 64.0182 153.037 64.8818 150.755 64.8818C148.782 64.8818 147.946 64.1 147.946 62.9545C147.946 62.4364 148.191 61.9454 148.655 61.5818C148.309 61.3818 148.037 61.0364 148.037 60.5636C148.037 60.0909 148.355 59.6636 148.955 59.4182C148.427 59.1 148.082 58.5636 148.082 57.6909C148.082 56.3364 148.809 55.5091 150.673 55.5091C151.309 55.5091 151.973 55.6182 152.473 55.9636L153.673 55.4818L153.927 56.0727L153.046 56.6909C153.173 56.9727 153.246 57.2909 153.246 57.7C153.246 59.0909 152.573 59.8636 150.664 59.8636C150.318 59.8636 149.973 59.8364 149.646 59.7545" fill="#3F526F"/>
        <path d="M163.063 59.6182C162.881 59.5091 162.336 59.3454 161.6 59.3454C160.381 59.3454 159.854 59.8364 159.854 60.7091C159.854 61.7545 160.481 62.1091 161.327 62.1091C162.236 62.1091 163.054 61.4909 163.054 60.8818V59.6182H163.063ZM163.218 62.0636H163.181C162.754 62.6818 161.954 63.0727 161.009 63.0727C159.672 63.0727 158.763 62.3727 158.763 60.7273C158.763 59.3545 159.645 58.5 161.391 58.5C162.018 58.5 162.618 58.6273 163.072 58.7818V58.0545C163.072 56.9 162.554 56.4909 161.363 56.4909C160.591 56.4909 159.963 56.6273 159.309 56.9364L159.2 55.9636C159.9 55.6455 160.681 55.4818 161.554 55.4818C163.481 55.4818 164.209 56.2909 164.209 58.2182V62.9454H163.327L163.218 62.0454V62.0636Z" fill="#3F526F"/>
        <path d="M170.764 62.9545V58.1182C170.764 57.0364 170.191 56.5818 169.109 56.5818C168.482 56.5818 167.746 56.8727 167.4 57.4V62.9455H166.237V55.6546L167.073 55.5909L167.273 56.3636H167.309C167.809 55.8091 168.609 55.4909 169.437 55.4909C170.982 55.4909 171.928 56.3636 171.928 58.1091V62.9455H170.773L170.764 62.9545Z" fill="#3F526F"/>
        <path d="M178.4 57.4182C178.091 56.9182 177.446 56.5818 176.655 56.5818C175.227 56.5818 174.718 57.3455 174.718 59.3364C174.718 61.3273 175.182 62.1364 176.646 62.1364C177.664 62.1364 178.191 61.6364 178.4 61.2364V57.4182ZM178.673 62.9546L178.527 62.1909H178.491C178.036 62.7818 177.309 63.1 176.327 63.1C174.355 63.1 173.518 61.9 173.518 59.2818C173.518 56.8 174.391 55.5 176.346 55.5C177.155 55.5 177.891 55.7818 178.409 56.3182H178.436L178.409 55.3273V53.2636L179.573 53.1909V62.9546H178.673Z" fill="#3F526F"/>
        <path d="M115.572 70.3909H113.772V74H115.572C116.872 74 117.5 73.5909 117.5 72.1818C117.5 70.8454 116.909 70.3909 115.572 70.3909ZM115.572 75.0545H113.772V78.5091H112.518V69.3H115.572C117.836 69.3 118.79 70.1818 118.79 72.1818C118.79 74.0727 117.854 75.0545 115.572 75.0545Z" fill="#3F526F"/>
        <path d="M120.427 78.5V71.2273L121.363 71.1636L121.463 72.7364H121.491C121.945 71.6818 122.745 71.0636 123.736 71.0636C124.009 71.0636 124.263 71.1 124.463 71.1636L124.391 72.3454C124.172 72.2727 123.927 72.2454 123.663 72.2454C122.518 72.2454 121.6 73.2182 121.6 74.7909V78.5H120.436H120.427Z" fill="#3F526F"/>
        <path d="M128.573 77.6818C129.982 77.6818 130.527 76.9545 130.527 74.8727C130.527 72.7909 129.991 72.0636 128.573 72.0636C127.154 72.0636 126.582 72.7727 126.582 74.8727C126.582 76.9727 127.136 77.6818 128.573 77.6818ZM128.573 78.6636C126.364 78.6636 125.382 77.5818 125.382 74.8727C125.382 72.1636 126.373 71.0636 128.573 71.0636C130.773 71.0636 131.718 72.1545 131.718 74.8727C131.718 77.5909 130.773 78.6636 128.573 78.6636Z" fill="#3F526F"/>
        <path d="M136.2 77.6818C137.609 77.6818 138.154 76.9545 138.154 74.8727C138.154 72.7909 137.618 72.0636 136.2 72.0636C134.781 72.0636 134.209 72.7727 134.209 74.8727C134.209 76.9727 134.763 77.6818 136.2 77.6818ZM136.2 78.6636C133.991 78.6636 133.009 77.5818 133.009 74.8727C133.009 72.1636 134 71.0636 136.2 71.0636C138.4 71.0636 139.345 72.1545 139.345 74.8727C139.345 77.5909 138.4 78.6636 136.2 78.6636Z" fill="#3F526F"/>
        <path d="M141.418 78.5V72.0818H140.336V71.1818H141.418V70.8545C141.418 69.6273 142.127 68.7272 143.809 68.7272C144.191 68.7272 144.618 68.7909 144.891 68.8727L144.818 69.6727C144.582 69.6091 144.3 69.5727 144.018 69.5727C143 69.5727 142.582 70.0545 142.582 70.8636V71.1818H144.464V72.0818H142.582V78.5H141.418Z" fill="#3F526F"/>
        <path d="M145.991 78.5V71.2273L146.927 71.1636L147.027 72.7364H147.054C147.509 71.6818 148.309 71.0636 149.3 71.0636C149.573 71.0636 149.827 71.1 150.027 71.1636L149.954 72.3454C149.736 72.2727 149.491 72.2454 149.227 72.2454C148.082 72.2454 147.164 73.2182 147.164 74.7909V78.5H146H145.991Z" fill="#3F526F"/>
        <path d="M155.782 74.2091C155.755 72.6636 155.037 72.0727 153.982 72.0727C152.746 72.0727 152.191 72.7636 152.118 74.2091H155.791H155.782ZM150.946 74.6545C150.946 72.3545 151.955 71.0727 153.964 71.0727C155.709 71.0727 156.846 72.1 156.846 74.4454C156.846 74.6273 156.837 74.8545 156.818 75.0091H152.127C152.191 76.9364 152.9 77.6 154.473 77.6C155.209 77.6 155.837 77.4454 156.464 77.1364L156.6 78.1182C155.982 78.4454 155.227 78.6545 154.337 78.6545C151.927 78.6545 150.937 77.3909 150.937 74.6545" fill="#3F526F"/>
        <path d="M162.491 75.1637C162.309 75.0546 161.763 74.8909 161.027 74.8909C159.809 74.8909 159.282 75.3818 159.282 76.2546C159.282 77.3 159.909 77.6546 160.754 77.6546C161.663 77.6546 162.482 77.0364 162.482 76.4273V75.1637H162.491ZM162.645 77.6091H162.609C162.182 78.2273 161.382 78.6182 160.436 78.6182C159.1 78.6182 158.191 77.9182 158.191 76.2727C158.191 74.9 159.072 74.0546 160.818 74.0546C161.445 74.0546 162.045 74.1818 162.5 74.3364V73.6091C162.5 72.4546 161.982 72.0455 160.791 72.0455C160.018 72.0455 159.391 72.1818 158.736 72.4909L158.627 71.5182C159.327 71.2 160.109 71.0364 160.982 71.0364C162.909 71.0364 163.636 71.8455 163.636 73.7727V78.5H162.754L162.645 77.6V77.6091Z" fill="#3F526F"/>
        <path d="M170.127 72.9636C169.818 72.4636 169.172 72.1273 168.381 72.1273C166.954 72.1273 166.445 72.8909 166.445 74.8818C166.445 76.8727 166.909 77.6818 168.372 77.6818C169.39 77.6818 169.918 77.1818 170.127 76.7818V72.9636ZM170.4 78.5L170.254 77.7364H170.218C169.763 78.3273 169.036 78.6454 168.054 78.6454C166.081 78.6454 165.245 77.4454 165.245 74.8273C165.245 72.3454 166.118 71.0454 168.072 71.0454C168.881 71.0454 169.618 71.3273 170.136 71.8636H170.163L170.136 70.8727V68.8091L171.3 68.7364V78.5H170.4Z" fill="#3F526F"/>
        <path d="M173.746 78.5V71.2182L174.909 71.1545V78.5H173.746ZM174.337 69.9545C173.837 69.9545 173.591 69.8 173.591 69.3273C173.591 68.9182 173.837 68.7 174.337 68.7C174.837 68.7 175.082 68.9182 175.082 69.3273C175.082 69.7546 174.837 69.9545 174.337 69.9545Z" fill="#3F526F"/>
        <path d="M181.882 78.5V73.6636C181.882 72.5818 181.309 72.1273 180.227 72.1273C179.6 72.1273 178.863 72.4182 178.518 72.9455V78.4909H177.354V71.2L178.191 71.1364L178.391 71.9091H178.427C178.927 71.3546 179.727 71.0364 180.554 71.0364C182.1 71.0364 183.045 71.9091 183.045 73.6546V78.4909H181.891L181.882 78.5Z" fill="#3F526F"/>
        <path d="M186.055 73.2727C186.055 74.3091 186.655 74.5455 187.482 74.5455C188.609 74.5455 188.955 74.1273 188.955 73.2727C188.955 72.3182 188.527 71.9818 187.509 71.9818C186.437 71.9818 186.064 72.4 186.064 73.2727M186.373 77.3455C185.964 77.6273 185.773 78.0182 185.773 78.3636C185.773 79.1 186.291 79.5182 187.555 79.5182C189.209 79.5182 189.627 79.0636 189.627 78.4C189.627 77.8818 189.355 77.6182 188.155 77.5L186.373 77.3455ZM186.482 75.2909C186.127 75.3909 185.927 75.5818 185.927 75.8273C185.927 76.0727 186.127 76.2818 186.564 76.3182L188.346 76.4636C190.109 76.6091 190.691 77.2 190.691 78.2273C190.691 79.5636 189.855 80.4273 187.573 80.4273C185.6 80.4273 184.764 79.6455 184.764 78.5C184.764 77.9818 185.009 77.4909 185.473 77.1273C185.127 76.9273 184.855 76.5818 184.855 76.1091C184.855 75.6364 185.173 75.2091 185.773 74.9636C185.246 74.6455 184.9 74.1091 184.9 73.2364C184.9 71.8818 185.627 71.0546 187.491 71.0546C188.127 71.0546 188.791 71.1636 189.3 71.5091L190.5 71.0273L190.755 71.6182L189.873 72.2364C190 72.5182 190.073 72.8364 190.073 73.2455C190.073 74.6364 189.4 75.4091 187.491 75.4091C187.146 75.4091 186.8 75.3818 186.473 75.3" fill="#3F526F"/>
        <path d="M102.545 51.2727C102.545 79.5909 79.5909 102.545 51.2727 102.545C22.9545 102.545 0 79.5909 0 51.2727C0 22.9545 22.9545 0 51.2727 0C79.5909 0 102.545 22.9545 102.545 51.2727Z" fill="#3F526F"/>
        <path d="M79.2091 40.0182H79.1727C78.8727 40.0182 78.6364 40.2636 78.6364 40.5636V40.6182C78.6364 40.9545 78.9454 41.2182 79.2818 41.1545C79.5545 41.1 79.8454 41.0727 80.1454 41.0727C82.4273 41.0727 84.0909 42.3909 84.8454 44.9C85.4818 46.6364 85.8818 48.9 85.8818 51.3818C85.8818 53.8636 85.4909 56.1364 84.8454 57.8636C84.0909 60.3727 82.4273 61.6909 80.1454 61.6909C79.8454 61.6909 79.5545 61.6636 79.2818 61.6091C78.9454 61.5454 78.6364 61.8091 78.6364 62.1454V62.2C78.6364 62.5 78.8727 62.7454 79.1727 62.7454C79.1818 62.7454 79.1909 62.7454 79.2091 62.7454C85.2545 62.7454 91.1636 58.6909 91.1636 51.8C91.1636 51.6545 91.1545 51.5182 91.1454 51.3818C91.1454 51.2454 91.1636 51.1091 91.1636 50.9636C91.1636 44.0727 85.2545 40.0182 79.2091 40.0182Z" fill="white"/>
        <path d="M37.0549 39.6727H39.7367L41.6912 57.7091C42.4458 62.2546 41.3276 62.7273 38.3912 62.7273C35.4549 62.7273 34.4549 62.4364 35.1458 57.7091L37.0458 39.6727H37.0549Z" fill="white"/>
        <path d="M38.3996 28.0818C40.4359 28.0818 42.0087 29.7 42.0087 31.6909C42.0087 33.6818 40.4359 35.3546 38.3996 35.3546C36.3632 35.3546 34.7905 33.6818 34.7905 31.6909C34.7905 29.7 36.4087 28.0818 38.3996 28.0818Z" fill="#C9DCAC"/>
        <path d="M76.1543 66.3364V40.4454C76.1543 39.8364 75.5452 40.0273 75.5452 40.0273L67.7361 41.7545V42.2727L68.8543 42.8364C70.4907 43.6273 70.9089 44.2818 70.9089 46.7182V66.3545C70.9089 70.8454 70.2998 71.3545 68.1998 71.7727V72.6636C69.4634 72.6636 71.6089 72.6182 73.6725 72.6182C75.7361 72.6182 77.5907 72.6636 79.0361 72.6636V71.7727C76.6998 71.3545 76.1452 70.8363 76.1452 66.3545" fill="white"/>
        <path d="M30.218 42.3546C29.4362 40.9091 27.4089 40 23.7998 39.7546C23.6271 39.7727 23.2634 39.8546 23.2907 40.3C23.2907 40.3 23.2634 40.8091 23.8907 40.7909C24.9543 40.8818 25.5271 41.3273 26.0725 42.1727C26.9271 43.5 25.5452 44.2273 26.4271 45.7909C27.0634 46.9273 28.5452 46.8273 29.6089 46.2091C30.818 45.5 30.9362 43.6727 30.218 42.3546Z" fill="white"/>
        <path d="M65.8457 57C65.7457 57 65.6639 57.0454 65.6003 57.1C63.6821 59.0091 61.9094 59.9454 59.3366 59.9454C54.6639 59.9454 51.2003 56.0182 51.0639 49.6182V49.2909H66.3912C66.2548 43.0727 63.3548 39.7091 57.3276 39.7091C51.8548 39.7091 46.2003 44.4727 46.2003 52C46.2003 58.9636 50.6367 63.0273 56.573 63.0273C60.6367 63.0273 63.773 60.9273 66.2003 57.5636C66.2276 57.5091 66.2367 57.4545 66.2367 57.3909C66.2367 57.1727 66.0639 57 65.8457 57ZM51.0639 47.9182C51.373 43.5 53.3185 40.9273 56.3367 40.9273C58.9276 40.9273 60.5821 43.1091 60.8457 47.4182C60.8639 47.7454 60.5912 48.0273 60.2639 48.0273H51.0548C51.0548 48.0273 51.0639 47.9545 51.0639 47.9182Z" fill="white"/>
        <path d="M31.1546 58.2364C31.1546 58.0182 30.9819 57.8545 30.7728 57.8545C30.6909 57.8545 30.6182 57.8818 30.5546 57.9273C28.4091 59.3273 26.8637 59.8454 24.6182 59.8454C19.8 59.8454 16.4819 55.9182 16.4819 49.5182C16.4819 44.9545 18.1546 42.0636 20.8 41.2C21.4091 40.9636 21.3182 40.4364 21.3182 40.4364C21.2455 39.9818 20.8273 39.9454 20.5819 39.9545C15.3909 41.1545 11.4 46.1091 11.4 52.3636C11.4 58.6182 15.6091 62.9727 21.7728 62.9727C25.8364 62.9727 29.3909 60.5091 31.0273 58.5364C31.1091 58.4545 31.1546 58.3545 31.1637 58.2454L31.1546 58.2364Z" fill="white"/>
    </g>
    <defs>
        <clipPath id="clip0_852_160">
            <rect width="190.755" height="102.545" fill="white"/>
        </clipPath>
    </defs>
</svg>
